<?xml version="1.0" encoding="utf-8"?>
<!-- Generator: Adobe Illustrator 16.0.0, SVG Export Plug-In . SVG Version: 6.00 Build 0)  -->
<!DOCTYPE svg PUBLIC "-//W3C//DTD SVG 1.1//EN" "http://www.w3.org/Graphics/SVG/1.1/DTD/svg11.dtd">
<svg version="1.1" id="Layer_1" xmlns="http://www.w3.org/2000/svg" xmlns:xlink="http://www.w3.org/1999/xlink" x="0px" y="0px"
	 width="310px" height="238.651px" viewBox="0 0 310 238.651" enable-background="new 0 0 310 238.651" xml:space="preserve">
<g>
	<circle fill="none" stroke="#FFFFFF" stroke-width="3" stroke-miterlimit="10" cx="156.306" cy="119.536" r="81.261"/>
	<g>
		<defs>
			<rect id="SVGID_1_" x="-0.507" y="-0.03" width="311.021" height="239.128"/>
		</defs>
		<clipPath id="SVGID_2_">
			<use xlink:href="#SVGID_1_"  overflow="visible"/>
		</clipPath>
		<path clip-path="url(#SVGID_2_)" fill="#FFFFFF" d="M185.571,118.813c0-11.298,5.184-21.878,16.193-21.878
			s16.193,10.58,16.193,21.878s-5.184,21.302-16.193,21.302S185.571,130.111,185.571,118.813 M174.924,118.813
			c0,15.042,11.803,26.196,26.841,26.196c15.044,0,26.844-11.154,26.844-26.196c0-15.04-11.8-26.196-26.844-26.196
			C186.727,92.617,174.924,103.773,174.924,118.813 M157.148,120.252c1.44,0,2.878,1.438,2.878,2.881v0.862l0.577,0.575h3.167
			l0.572-0.575v-11.803l-0.572-0.576h-3.167l-0.577,0.576v0.864c0,1.367-1.438,2.878-2.878,2.878h-7.988v-15.113
			c0-1.44,1.439-2.878,2.878-2.878h5.04c3.887,0,6.115,2.591,6.692,6.765l0.572,0.575h3.025l3.601-8.779v-2.159l-0.724-0.72H133.76
			l-0.575,0.576v3.166l0.575,0.576h2.302c1.441,0,2.88,1.438,2.88,2.878v35.982c0,1.439-1.438,2.879-2.88,2.879h-2.302l-0.575,0.575
			v3.167l0.575,0.577h37.496l0.573-0.577l1.08-13.384l-0.432-0.58h-3.167l-0.574,0.58c-0.506,4.604-2.377,9.642-10.22,9.642h-6.479
			c-1.438,0-2.878-1.44-2.878-2.879v-16.552H157.148z M123.109,131.191c0,6.118-5.397,9.5-11.227,9.5
			c-10.362,0-17.343-10.147-17.343-21.879c0-11.731,6.98-21.877,17.343-21.878c5.829,0,11.227,3.382,11.227,9.499v1.296l0.575,0.576
			h3.885l0.576-0.576l-0.718-10.866l-0.648-0.793c-3.526-1.726-8.852-3.454-15.544-3.454c-15.833,0-27.349,10.219-27.349,26.196
			c0,15.977,11.516,26.196,27.349,26.196c6.692,0,12.018-1.728,15.544-3.455l0.648-0.793l0.718-10.866l-0.576-0.577h-3.885
			l-0.575,0.577V131.191z"/>
	</g>
</g>
</svg>
