<?xml version="1.0" encoding="utf-8"?>
<!-- Generator: Adobe Illustrator 16.0.4, SVG Export Plug-In . SVG Version: 6.00 Build 0)  -->
<!DOCTYPE svg PUBLIC "-//W3C//DTD SVG 1.1//EN" "http://www.w3.org/Graphics/SVG/1.1/DTD/svg11.dtd">
<svg version="1.1" id="Layer_1" xmlns="http://www.w3.org/2000/svg" xmlns:xlink="http://www.w3.org/1999/xlink" x="0px" y="0px"
	 width="471px" height="323px" viewBox="0 0 471 323" enable-background="new 0 0 471 323" xml:space="preserve">
<g>
	
		<image overflow="visible" opacity="0.75" width="2088" height="1471" xlink:href="9341CEF59A4FD51C.png"  transform="matrix(0.24 0 0 0.24 -8 -8)">
	</image>
	<g>
		<rect fill="#FFFFFF" width="471" height="323"/>
	</g>
</g>
<g>
	<g>
		<path d="M5.335,100.411c52.541,8.728,105.955,1.994,158.809,1.156c28.606-0.454,57.246-0.067,85.855-0.067
			c25.992,0,52.676-5.218,78.335,0.911c3.135,0.749,4.465-4.072,1.33-4.821c-24.467-5.844-49.919-1.793-74.713-1.149
			c-28.464,0.74-57.009-0.063-85.482,0.071c-54.176,0.254-108.939,8.025-162.805-0.922C3.512,95.065,2.16,99.883,5.335,100.411
			L5.335,100.411z"/>
	</g>
</g>
<g>
	<g>
		<path d="M329.411,103.284c2.617-9.503,10.862-17.253,18.227-23.308c7.195-5.916,17.243-12.598,26.998-11.876
			c8.484,0.627,12.254,12.372,13.138,19.242c1.015,7.883-0.662,18.333-9.438,20.862c0.643,1.523,1.285,3.046,1.927,4.569
			c9.363-4.24,18.172-10.195,28.273-12.577c13.796-3.252,20.479,10.136,23.25,21.495c5.533,22.686-19.396,30.915-36.45,35.629
			c-3.114,0.861-1.804,5.555,1.33,4.821c13.21-3.091,48.637-16.224,50.833,6.167c1.893,19.288-28.216,21.559-41.163,24.421
			c-2.306,0.511-2.48,4.453,0,4.822c8.663,1.285,17.436,3.662,25.433,7.235c6.898,3.083,16.553,10.195,9.786,18.521
			c-4.979,6.128-15.866,5.731-22.897,5.375c-6.919-0.35-14.526-1.31-20.991-3.972c-0.222,1.638-0.443,3.274-0.665,4.911
			c11.778,1.279,43.22,19.559,22.97,31.192c-8.413,4.833-20.696,3.199-29.755,1.683c-10.071-1.688-20.335-4.74-29.21-9.868
			c-0.811-0.469-1.587-0.989-2.361-1.513c-1.436-0.973-0.793-1.361-0.688-0.432c-0.202-1.796-0.148-4.019-1.178-5.599
			c-3.34-5.128-10.723-6.969-15.748-10.037c-5.07-3.097-9.894-6.573-15.344-8.997c-5.547-2.468-11.854-3.955-17.754-5.33
			c-27.04-6.302-55.516-4.233-82.956-2.499c-36.758,2.322-73.499,1.83-110.316,1.83c-39.229,0-78.438-1.104-117.66-1.142
			c-3.225-0.003-3.224,4.997,0,5c64.421,0.062,128.853,2.256,193.284,1.074c28.128-0.517,56.117-4.115,84.283-3.235
			c13.964,0.436,27.888,2.188,41.276,6.27c5.927,1.807,11.107,4.056,16.376,7.346c5.745,3.587,11.688,6.589,17.519,9.996
			c4.761,2.782,1.387,5.641,4.203,8.457c1.712,1.712,4.195,2.961,6.291,4.115c6.12,3.37,12.909,5.618,19.631,7.42
			c12.459,3.338,28.736,6.134,40.982,0.572c5.004-2.273,9.595-6.606,10.687-12.165c0.982-5-1.648-9.628-4.715-13.335
			c-6.844-8.271-19.177-14.647-29.817-15.804c-3.056-0.332-3.027,3.938-0.665,4.911c7.707,3.172,16.914,4.043,25.154,4.259
			c8.71,0.228,19.379-0.902,24.841-8.571c6.07-8.522,0.088-17.729-7.401-22.341c-9.145-5.63-20.718-8.585-31.264-10.151
			c0,1.607,0,3.215,0,4.822c16.215-3.586,48.12-7.104,44.647-30.888c-3.824-26.193-40.663-13.162-56.978-9.344
			c0.443,1.607,0.887,3.214,1.33,4.821c11.124-3.075,22.64-6.642,31.628-14.179c8.749-7.337,10.593-18.254,7.989-28.932
			c-2.912-11.936-10.397-24.523-24.019-24.331c-12.284,0.174-23.744,8.874-34.525,13.756c-2.623,1.188-0.742,5.338,1.927,4.569
			c19.783-5.701,16.619-41.625-0.534-48.811c-10.543-4.417-23.295,3.54-31.501,9.498c-9.43,6.846-19.839,16.618-23.041,28.242
			C323.731,105.069,328.556,106.389,329.411,103.284L329.411,103.284z"/>
	</g>
</g>
<g>
	<g>
		<path d="M197.5,102c-1.038,8.316-1.935,16.61-2,25c-0.025,3.226,4.975,3.223,5,0c0.065-8.39,0.962-16.684,2-25
			C202.898,98.806,197.894,98.844,197.5,102L197.5,102z"/>
	</g>
</g>
<g>
	<g>
		<path d="M261.589,104.665c0.987,5.379,0.909,10.887,0.911,16.335c0.001,3.224,5.001,3.225,5,0
			c-0.002-5.915-0.019-11.828-1.089-17.665C265.829,100.167,261.011,101.513,261.589,104.665L261.589,104.665z"/>
	</g>
</g>
<g>
	<g>
		<path d="M255.5,200c0,5.333,0,10.667,0,16c0,3.225,5,3.225,5,0c0-5.333,0-10.667,0-16C260.5,196.775,255.5,196.775,255.5,200
			L255.5,200z"/>
	</g>
</g>
<g>
	<g>
		<path d="M197.5,194c0.064,9.3,0.928,18.606,3.089,27.665c0.748,3.135,5.569,1.805,4.821-1.33
			c-2.061-8.638-2.85-17.468-2.911-26.335C202.478,190.777,197.478,190.774,197.5,194L197.5,194z"/>
	</g>
</g>
<g>
	<g>
		<path d="M32.589,129.335c-1.075,3.04-2.973,5.738-4.748,8.403c-1.793,2.692,2.539,5.192,4.317,2.523
			c2.036-3.056,4.021-6.115,5.252-9.597C38.489,127.617,33.657,126.317,32.589,129.335L32.589,129.335z"/>
	</g>
</g>
<g>
	<g>
		<path d="M57.841,171.738c-1,2-2,4-3,6c-0.609,1.219-0.335,2.699,0.897,3.42c1.117,0.655,2.812,0.321,3.42-0.896c1-2,2-4,3-6
			c0.609-1.219,0.335-2.699-0.897-3.42C60.145,170.187,58.45,170.521,57.841,171.738L57.841,171.738z"/>
	</g>
</g>
<g>
	<g>
		<path d="M23.589,181.335c-0.878,2.816-1.087,5.731-1.089,8.665c-0.002,3.225,4.998,3.225,5,0c0.002-2.515,0.157-4.919,0.911-7.335
			C29.373,179.578,24.546,178.268,23.589,181.335L23.589,181.335z"/>
	</g>
</g>
<g>
	<g>
		<path d="M38,165.5c4.596-0.062,8.446-1.526,11.768-4.732c2.324-2.242-1.215-5.774-3.535-3.535
			c-2.376,2.292-4.955,3.223-8.232,3.268C34.778,160.544,34.774,165.544,38,165.5L38,165.5z"/>
	</g>
</g>
<g>
	<g>
		<path d="M48.5,208c0.024,1.31,0.347,2.469,1.205,3.474c0.313,0.366,0.721,0.644,1.103,0.931c0.143,0.108,0.644,0.487,0-0.013
			c0.15,0.116,0.289,0.244,0.426,0.376c0.979,0.946,2.56,0.976,3.535,0c0.951-0.95,0.98-2.589,0-3.535
			c-0.321-0.311-0.679-0.579-1.036-0.849c-0.101-0.075-0.202-0.15-0.304-0.225c-0.381-0.279,0.489,0.396,0.133,0.103
			c-0.088-0.073-0.167-0.154-0.246-0.237c0.474,0.498,0.243,0.337,0.121,0.122c0.334,0.587,0.131,0.333,0.065,0.086
			c-0.05-0.26-0.045-0.204,0.015,0.167c-0.01-0.133-0.016-0.267-0.015-0.399c-0.025-1.362-1.118-2.5-2.5-2.5
			C49.656,205.5,48.475,206.637,48.5,208L48.5,208z"/>
	</g>
</g>
<g>
	<g>
		<path d="M81.738,209.158c2.344,1.091,4.701,1.34,7.262,1.342c3.225,0.003,3.224-4.997,0-5c-1.601-0.001-3.253,0.032-4.738-0.658
			c-1.235-0.575-2.685-0.36-3.42,0.896C80.202,206.83,80.502,208.584,81.738,209.158L81.738,209.158z"/>
	</g>
</g>
<g>
	<g>
		<path d="M92.768,179.768c0.527-0.498-0.384,0.216,0.161-0.139c0.252-0.132,0.22-0.129-0.098,0.01
			c0.109-0.04,0.221-0.075,0.333-0.103c0.276-0.056,0.221-0.056-0.165,0.001c0.111-0.012,0.222-0.021,0.333-0.026
			c0.222-0.014,0.444-0.011,0.667-0.011c1.363-0.001,2.5-1.136,2.5-2.5c0-1.361-1.137-2.501-2.5-2.5
			c-1.835,0.002-3.407,0.446-4.768,1.732c-0.99,0.936-0.943,2.593,0,3.535C90.216,180.751,91.778,180.703,92.768,179.768
			L92.768,179.768z"/>
	</g>
</g>
<g>
	<g>
		<path d="M90.262,143.841c-0.217-0.114-0.424-0.235-0.631-0.368c-0.629-0.403,0.318,0.292-0.234-0.186
			c-0.395-0.341-0.739-0.739-1.073-1.139c-0.051-0.061-0.491-0.622-0.128-0.151c-0.211-0.273-0.421-0.548-0.633-0.821
			c-0.253-0.326-0.508-0.647-0.795-0.944c-0.946-0.98-2.585-0.951-3.535,0c-0.976,0.976-0.946,2.556,0,3.535
			c0.115,0.12,0.226,0.242,0.334,0.368c0.078,0.09,0.576,0.729,0.189,0.227c0.385,0.501,0.767,1.004,1.171,1.489
			c0.775,0.93,1.74,1.743,2.811,2.308c1.205,0.636,2.71,0.316,3.42-0.897C91.825,146.125,91.466,144.477,90.262,143.841
			L90.262,143.841z"/>
	</g>
</g>
<g>
	<g>
		<path d="M71,120.5c-2.971-0.078-6.065-1.273-7.841-3.762c-1.856-2.6-6.195-0.107-4.317,2.523
			c2.845,3.985,7.295,6.111,12.159,6.238C74.226,125.584,74.218,120.584,71,120.5L71,120.5z"/>
	</g>
</g>
<g>
	<g>
		<path d="M111,122.5c2.339,0.051,4.632,0.641,6.738,1.659c2.889,1.397,5.426-2.914,2.523-4.317
			c-2.92-1.412-6.007-2.271-9.262-2.341C107.774,117.43,107.781,122.43,111,122.5L111,122.5z"/>
	</g>
</g>
<g>
	<g>
		<path d="M139.335,116.411c2.67,0.908,5.052,2.197,7.403,3.748c2.7,1.782,5.202-2.55,2.523-4.317
			c-2.711-1.789-5.519-3.205-8.597-4.252C137.604,110.548,136.301,115.378,139.335,116.411L139.335,116.411z"/>
	</g>
</g>
<g>
	<g>
		<path d="M163.841,112.262c1.111,2.285,1.889,4.714,3,7c1.41,2.899,5.721,0.363,4.317-2.523c-1.111-2.285-1.889-4.714-3-7
			C166.749,106.839,162.438,109.375,163.841,112.262L163.841,112.262z"/>
	</g>
</g>
<g>
	<g>
		<path d="M144.5,147c-0.093,3.986-1.502,7.437-3.659,10.738c-1.769,2.708,2.562,5.211,4.317,2.523
			c2.632-4.03,4.229-8.421,4.341-13.262C149.575,143.774,144.575,143.781,144.5,147L144.5,147z"/>
	</g>
</g>
<g>
	<g>
		<path d="M119.232,145.232c-1.333,1.333-2.667,2.667-4,4c-2.282,2.282,1.253,5.817,3.535,3.535c1.333-1.333,2.667-2.667,4-4
			C125.05,146.486,121.514,142.95,119.232,145.232L119.232,145.232z"/>
	</g>
</g>
<g>
	<g>
		<path d="M161.232,150.768c2.103,2.004,4.914,3.013,7,5c2.333,2.223,5.874-1.307,3.535-3.535c-2.103-2.004-4.914-3.013-7-5
			C162.435,145.009,158.894,148.54,161.232,150.768L161.232,150.768z"/>
	</g>
</g>
<g>
	<g>
		<path d="M168.589,177.665c0.275,0.889,0.395,1.535,0.172,2.288c-0.092,0.312-0.488,0.603-1.023,0.889
			c-2.846,1.518-0.32,5.834,2.523,4.316c3.322-1.771,4.213-5.381,3.149-8.823C172.462,173.265,167.635,174.575,168.589,177.665
			L168.589,177.665z"/>
	</g>
</g>
<g>
	<g>
		<path d="M122.5,185c0,2.333,0,4.667,0,7c0,3.225,5,3.225,5,0c0-2.333,0-4.667,0-7C127.5,181.775,122.5,181.775,122.5,185
			L122.5,185z"/>
	</g>
</g>
<g>
	<g>
		<path d="M104.665,171.411c4.043-1.485,6.71-5.077,6.835-9.411c0.093-3.226-4.907-3.217-5,0c-0.057,1.979-1.265,3.892-3.165,4.589
			C100.335,167.691,101.631,172.525,104.665,171.411L104.665,171.411z"/>
	</g>
</g>
<g>
	<g>
		<path d="M81.841,114.262c2,3,4,6,6,9c1.779,2.668,6.112,0.168,4.317-2.523c-2-3-4-6-6-9
			C84.38,109.07,80.047,111.57,81.841,114.262L81.841,114.262z"/>
	</g>
</g>
<g>
	<g>
		<path d="M177.841,206.262c1.265,2.464,2.823,4.777,3.748,7.403c1.064,3.02,5.896,1.72,4.821-1.33
			c-1.075-3.052-2.783-5.736-4.252-8.597C180.686,200.869,176.372,203.399,177.841,206.262L177.841,206.262z"/>
	</g>
</g>
<g>
	<g>
		<path d="M158,204.5c-0.91,0.049-1.606,0.299-2.429,0.678c-0.225,0.104-0.444,0.22-0.667,0.327
			c-0.254,0.117-0.222,0.104,0.097-0.042c-0.205,0.077-0.664,0.072-0.002,0.037c-1.36,0.073-2.5,1.082-2.5,2.5
			c0,1.308,1.138,2.573,2.5,2.5c0.91-0.049,1.606-0.299,2.429-0.678c0.225-0.104,0.444-0.22,0.667-0.327
			c0.254-0.117,0.222-0.104-0.097,0.042c0.205-0.077,0.664-0.072,0.002-0.037c1.36-0.073,2.5-1.082,2.5-2.5
			C160.5,205.692,159.362,204.427,158,204.5L158,204.5z"/>
	</g>
</g>
<g>
	<g>
		<path d="M134.335,209.589c-2.414,0.821-4.752,1.854-7.335,1.911c-3.219,0.071-3.226,5.071,0,5
			c3.081-0.068,5.788-1.111,8.665-2.089C138.699,213.379,137.396,208.548,134.335,209.589L134.335,209.589z"/>
	</g>
</g>
<g>
	<g>
		<path d="M102.5,200c-0.001-2.272-0.343-4.203-1.341-6.262c-0.594-1.226-2.314-1.545-3.42-0.896
			c-1.242,0.728-1.492,2.193-0.897,3.42c0.684,1.409,0.658,2.151,0.659,3.738C97.502,203.225,102.502,203.225,102.5,200L102.5,200z"
			/>
	</g>
</g>
<g>
	<g>
		<path d="M25.738,205.842c-2.665,1.775-5.363,3.672-8.403,4.747c-3.018,1.068-1.719,5.899,1.329,4.822
			c3.482-1.232,6.542-3.217,9.597-5.253C30.931,208.381,28.43,204.048,25.738,205.842L25.738,205.842z"/>
	</g>
</g>
<g>
	<g>
		<path d="M16.411,145.335c-1.003-3.266-0.997-6.734-2-10c-0.944-3.073-5.771-1.761-4.821,1.329c1.003,3.266,0.997,6.734,2,10
			C12.533,149.737,17.36,148.426,16.411,145.335L16.411,145.335z"/>
	</g>
</g>
<g>
	<g>
		<path d="M17,113.5c3.224,0,3.224-5,0-5S13.776,113.5,17,113.5L17,113.5z"/>
	</g>
</g>
<g>
	<g>
		<path d="M284.5,110c-0.069,2.03-0.93,3.947-1,6c-0.109,3.226,4.891,3.215,5,0c0.069-2.03,0.93-3.947,1-6
			C289.609,106.774,284.609,106.785,284.5,110L284.5,110z"/>
	</g>
</g>
<g>
	<g>
		<path d="M295.5,134c0.068,2.986,1.567,5.731,4.238,7.159c1.202,0.643,2.713,0.311,3.42-0.897c0.669-1.142,0.304-2.779-0.896-3.42
			c-1.259-0.673-1.733-1.598-1.762-2.841C300.427,130.781,295.427,130.774,295.5,134L295.5,134z"/>
	</g>
</g>
<g>
	<g>
		<path d="M300.232,175.768c0.498,0.527-0.216-0.384,0.139,0.161c0.132,0.253,0.129,0.22-0.01-0.098
			c0.04,0.109,0.075,0.221,0.103,0.334c0.056,0.275,0.056,0.221-0.001-0.165c0.012,0.111,0.021,0.222,0.026,0.333
			c0.014,0.222,0.011,0.445,0.011,0.667c0.001,1.362,1.136,2.5,2.5,2.5c1.361,0,2.501-1.137,2.5-2.5
			c-0.002-1.836-0.446-3.407-1.732-4.768c-0.936-0.99-2.593-0.943-3.535,0C299.249,173.216,299.297,174.778,300.232,175.768
			L300.232,175.768z"/>
	</g>
</g>
<g>
	<g>
		<path d="M280.232,199.232c-1.689,1.688-3.359,3.483-5.494,4.609c-2.854,1.504-0.326,5.819,2.523,4.316
			c2.5-1.317,4.527-3.413,6.506-5.391C286.05,200.486,282.515,196.951,280.232,199.232L280.232,199.232z"/>
	</g>
</g>
<g>
	<g>
		<path d="M294.738,212.158c1.861,0.953,2.921,2.037,4.494,3.609c2.282,2.281,5.817-1.254,3.535-3.535
			c-1.679-1.679-3.373-3.3-5.506-4.391c-1.213-0.621-2.703-0.327-3.42,0.896C293.182,209.863,293.526,211.538,294.738,212.158
			L294.738,212.158z"/>
	</g>
</g>
<g>
	<g>
		<path d="M286,176.5c3.225,0,3.225-5,0-5S282.775,176.5,286,176.5L286,176.5z"/>
	</g>
</g>
</svg>
